<svg data-bbox="18.498 20 163.002 159.999" viewBox="0 0 200 200" height="200" width="200" xmlns="http://www.w3.org/2000/svg" data-type="color">
    <g fill="#3D3129">
        <path d="M144.519 121.006c-6.011-16.414-23.794-24.683-41.367-19.234-14.12 4.377-31.288 17.08-32.887 52.741a1.229 1.229 0 0 0 1.227 1.285h50.262c2.476 0 4.92-.437 7.261-1.298 13.495-4.95 20.45-19.975 15.504-33.494z" fill="#464646" data-color="1"/>
        <path d="M142.212 121.852c-5.553-15.161-22.032-22.785-38.333-17.731-23.674 7.338-30.029 30.53-31.094 49.218h39.118c-4.518-2.396-8.14-6.404-9.973-11.4-3.249-8.878 1.32-18.748 10.186-22.003 7.224-2.648 15.256 1.074 17.903 8.302 2.162 5.914-.88 12.487-6.78 14.652-4.853 1.78-10.25-.722-12.026-5.577-1.464-4.01.6-8.471 4.599-9.945.363-.13.726-.228 1.092-.295a1.23 1.23 0 0 1 .446 2.419 4.558 4.558 0 0 0-.7.189c-2.721 1.002-4.13 4.049-3.13 6.787 1.31 3.58 5.292 5.425 8.874 4.113 4.628-1.699 7.014-6.856 5.318-11.496-1.703-4.652-6.116-7.542-10.804-7.542a11.43 11.43 0 0 0-3.947.704c-7.593 2.788-11.507 11.242-8.724 18.847 2.688 7.325 9.728 12.246 17.518 12.246 2.186 0 4.344-.386 6.415-1.147 12.223-4.486 18.522-18.096 14.042-30.341z" fill="#7BCBB1" data-color="2"/>
        <path d="M72.345 105.936a17.484 17.484 0 0 0 8.27 5.778 1.23 1.23 0 0 0 .762-2.338 15.028 15.028 0 0 1-7.995-6.22 1.228 1.228 0 0 0-2.072 0 14.967 14.967 0 0 1-12.203 6.951 14.963 14.963 0 0 1-12.202-6.951 1.227 1.227 0 0 0-2.072 0c-2.768 4.356-7.495 6.957-12.645 6.957a1.23 1.23 0 0 0 0 2.46c5.394 0 10.388-2.45 13.682-6.634a17.399 17.399 0 0 0 13.27 6.628 17.413 17.413 0 0 0 13.205-6.631z" fill="#464646" data-color="1"/>
        <path d="M171.979 110.107a14.96 14.96 0 0 1-12.235-6.952 1.228 1.228 0 0 0-2.072 0c-2.768 4.356-7.495 6.957-12.645 6.957a1.23 1.23 0 0 0 0 2.46c5.394 0 10.388-2.45 13.683-6.634a17.399 17.399 0 0 0 13.204 6.628 1.23 1.23 0 1 0 .065-2.459z" fill="#464646" data-color="1"/>
        <path d="M173.174 153.134a1.228 1.228 0 0 0-1.195-1.262 14.96 14.96 0 0 1-12.235-6.952 1.228 1.228 0 0 0-2.072 0c-2.768 4.356-7.495 6.957-12.645 6.957a1.23 1.23 0 0 0 0 2.46c5.394 0 10.39-2.45 13.683-6.634a17.402 17.402 0 0 0 13.204 6.628c.657.034 1.241-.518 1.26-1.197z" fill="#464646" data-color="1"/>
        <path d="M60.599 154.33c1.32-.035 2.634-.22 3.904-.549a1.23 1.23 0 0 0-.615-2.382c-1.08.28-2.198.438-3.322.471a14.96 14.96 0 0 1-12.202-6.951 1.227 1.227 0 0 0-2.072 0 14.913 14.913 0 0 1-12.645 6.957 1.23 1.23 0 0 0 0 2.46c5.394 0 10.39-2.45 13.682-6.634a17.405 17.405 0 0 0 13.27 6.628z" fill="#464646" data-color="1"/>
        <path d="M68.083 129.672a15.061 15.061 0 0 1-7.72-6.127 1.227 1.227 0 0 0-2.072 0c-2.768 4.356-7.495 6.957-12.645 6.957a1.23 1.23 0 0 0 0 2.46 17.34 17.34 0 0 0 13.683-6.635 17.524 17.524 0 0 0 7.947 5.669 1.231 1.231 0 0 0 .807-2.324z" fill="#464646" data-color="1"/>
        <path d="M165.753 123.545a1.227 1.227 0 0 0-2.072 0c-2.768 4.356-7.495 6.957-12.645 6.957a1.23 1.23 0 0 0 0 2.46c5.394 0 10.389-2.45 13.683-6.635a17.532 17.532 0 0 0 7.947 5.669 1.23 1.23 0 1 0 .808-2.322 15.075 15.075 0 0 1-7.721-6.129z" fill="#464646" data-color="1"/>
        <path d="M99.389 65.378c0-6.503-5.285-11.794-11.781-11.794s-11.781 5.29-11.781 11.794c0 6.503 5.285 11.792 11.781 11.792s11.781-5.289 11.781-11.792z" fill="#464646" data-color="1"/>
        <path d="M86.382 82.236v20.096c0 .679.55 1.23 1.228 1.23a1.23 1.23 0 0 0 1.228-1.23V82.236c0-.679-.55-1.23-1.228-1.23a1.23 1.23 0 0 0-1.228 1.23z" fill="#464646" data-color="1"/>
        <path d="M86.382 26.19v22.329c0 .679.55 1.23 1.228 1.23a1.23 1.23 0 0 0 1.228-1.23V26.19c0-.679-.55-1.23-1.228-1.23a1.23 1.23 0 0 0-1.228 1.23z" fill="#464646" data-color="1"/>
        <path d="M19.728 66.607h51.036a1.23 1.23 0 0 0 0-2.46H19.728a1.23 1.23 0 0 0 0 2.46z" fill="#464646" data-color="1"/>
        <path d="M103.223 65.377c0 .679.55 1.23 1.228 1.23h40.575a1.23 1.23 0 0 0 0-2.46h-40.575a1.23 1.23 0 0 0-1.228 1.23z" fill="#464646" data-color="1"/>
        <path d="M51.933 101.089a1.226 1.226 0 0 0 1.738 0l22.902-22.926a1.23 1.23 0 0 0-1.737-1.739L51.933 99.35a1.232 1.232 0 0 0 0 1.739z" fill="#464646" data-color="1"/>
        <path d="M98.289 53.46a1.231 1.231 0 0 0 2.1.87l19.427-19.451a1.23 1.23 0 0 0-1.737-1.739L98.71 52.532a1.227 1.227 0 0 0-.421.928z" fill="#464646" data-color="1"/>
        <path d="M75.704 54.689c.678 0 1.225-.551 1.225-1.23 0-.356-.152-.677-.395-.902L64.878 40.884a1.23 1.23 0 0 0-1.737 1.739L74.83 54.329c.231.231.549.36.874.36z" fill="#464646" data-color="1"/>
        <path d="M116.638 95.666a1.23 1.23 0 0 0 .868-2.099l-17.124-17.142a1.23 1.23 0 0 0-1.737 1.739l17.124 17.142c.241.24.555.36.869.36z" fill="#464646" data-color="1"/>
        <path d="M152.532 93.886a1.23 1.23 0 0 0 .491-2.357l-44.342-19.342a1.23 1.23 0 1 0-.982 2.254l44.342 19.342c.16.07.327.103.491.103z" fill="#464646" data-color="1"/>
        <path d="M137.93 42.419l-27.727 11.752a1.23 1.23 0 0 0 .959 2.265l27.727-11.752a1.23 1.23 0 0 0-.959-2.265z" fill="#464646" data-color="1"/>
        <path d="M64.81 73.486l-37.911 18.06a1.23 1.23 0 0 0 1.056 2.221l37.912-18.059a1.23 1.23 0 0 0-1.057-2.222z" fill="#464646" data-color="1"/>
        <path d="M41.351 46.698l22.413 9.733a1.225 1.225 0 0 0 1.616-.639 1.231 1.231 0 0 0-.638-1.618l-22.413-9.733a1.229 1.229 0 1 0-.978 2.257z" fill="#464646" data-color="1"/>
        <path d="M80.996 46.8a1.23 1.23 0 0 0 1.143-1.678l-9.504-24.34a1.23 1.23 0 0 0-2.287.896l9.504 24.34c.189.485.653.782 1.144.782z" fill="#464646" data-color="1"/>
        <path d="M107.92 20.117a1.23 1.23 0 0 0-1.635.588l-11.457 24.34a1.231 1.231 0 0 0 1.111 1.754c.461 0 .902-.261 1.112-.706l11.457-24.34a1.23 1.23 0 0 0-.588-1.636z" fill="#464646" data-color="1"/>
        <path d="M98.341 95.105a1.228 1.228 0 1 0 2.33-.776l-2.915-8.772a1.227 1.227 0 1 0-2.331.775l2.916 8.773z" fill="#464646" data-color="1"/>
        <path d="M75.425 95.947c.489 0 .951-.294 1.142-.776l2.955-7.443a1.23 1.23 0 0 0-.688-1.597 1.225 1.225 0 0 0-1.595.689l-2.955 7.443a1.23 1.23 0 0 0 1.141 1.684z" fill="#464646" data-color="1"/>
        <path d="M87.608 56.044c-5.142 0-9.324 4.187-9.324 9.334 0 5.146 4.183 9.333 9.324 9.333 5.142 0 9.324-4.187 9.324-9.333.001-5.147-4.182-9.334-9.324-9.334z" fill="#FDD93B" data-color="3"/>
        <path fill="#FFBFA8" d="M171.494 64.22a3.106 3.106 0 0 1-3.104 3.107 3.106 3.106 0 0 1-3.104-3.107 3.106 3.106 0 0 1 3.104-3.107 3.106 3.106 0 0 1 3.104 3.107z" data-color="4"/>
        <path fill="#FFBFA8" d="M180.107 91.52c0 4.714-3.818 8.535-8.527 8.535-4.71 0-8.527-3.821-8.527-8.535s3.818-8.535 8.527-8.535c4.71 0 8.527 3.821 8.527 8.535z" data-color="4"/>
        <path fill="#FFBFA8" d="M155.617 77.852a1.176 1.176 0 1 1-2.352 0 1.176 1.176 0 0 1 2.352 0z" data-color="4"/>
        <path d="M168.39 59.352a4.87 4.87 0 0 0-4.862 4.868c0 2.684 2.181 4.867 4.862 4.867s4.862-2.183 4.862-4.867a4.87 4.87 0 0 0-4.862-4.868zm0 7.276a2.41 2.41 0 0 1 0-4.816 2.41 2.41 0 0 1 0 4.816z" fill="#464646" data-color="1"/>
        <path d="M171.58 81.589c-5.47 0-9.92 4.455-9.92 9.931 0 5.475 4.45 9.93 9.92 9.93s9.92-4.455 9.92-9.93c0-5.476-4.45-9.931-9.92-9.931zm0 17.401c-4.115 0-7.464-3.351-7.464-7.471s3.348-7.471 7.464-7.471 7.463 3.352 7.463 7.471c0 4.12-3.347 7.471-7.463 7.471z" fill="#464646" data-color="1"/>
        <path d="M154.441 74.711c-1.73 0-3.137 1.409-3.137 3.14s1.407 3.14 3.137 3.14 3.137-1.409 3.137-3.14-1.407-3.14-3.137-3.14zm0 3.821a.682.682 0 0 1 0-1.362.682.682 0 0 1 0 1.362z" fill="#464646" data-color="1"/>
        <path d="M107.083 111.056c-11.448 2.907-21.008 13.361-23.788 26.015a1.23 1.23 0 0 0 2.399.529c2.586-11.767 11.424-21.476 21.994-24.159a1.23 1.23 0 0 0 .888-1.494 1.228 1.228 0 0 0-1.493-.891z" fill="#464646" data-color="1"/>
        <path fill="#FFBFA8" d="M96.652 166.853a3.137 3.137 0 0 1-3.135 3.138 3.137 3.137 0 0 1-3.135-3.138 3.137 3.137 0 0 1 3.135-3.138 3.137 3.137 0 0 1 3.135 3.138z" data-color="4"/>
        <path d="M93.517 162.047a4.81 4.81 0 0 0-4.801 4.806 4.81 4.81 0 0 0 4.801 4.806 4.81 4.81 0 0 0 4.802-4.806 4.81 4.81 0 0 0-4.802-4.806zm0 7.152a2.348 2.348 0 0 1 0-4.693 2.349 2.349 0 0 1 2.345 2.347 2.35 2.35 0 0 1-2.345 2.346z" fill="#464646" data-color="1"/>
        <path fill="#FFBFA8" d="M34.384 128.576a3.179 3.179 0 0 1-3.177 3.18 3.179 3.179 0 0 1-3.177-3.18 3.179 3.179 0 0 1 3.177-3.18 3.179 3.179 0 0 1 3.177 3.18z" data-color="4"/>
        <path d="M31.207 123.562a5.016 5.016 0 0 0-5.008 5.014 5.017 5.017 0 0 0 5.008 5.014 5.018 5.018 0 0 0 5.01-5.014 5.018 5.018 0 0 0-5.01-5.014zm0 7.568a2.555 2.555 0 0 1 0-5.108 2.556 2.556 0 0 1 2.553 2.554 2.558 2.558 0 0 1-2.553 2.554z" fill="#464646" data-color="1"/>
        <path fill="#FFBFA8" d="M81.059 170.934c0 4.363-3.533 7.9-7.892 7.9s-7.892-3.537-7.892-7.9 3.533-7.9 7.892-7.9 7.892 3.537 7.892 7.9z" data-color="4"/>
        <path d="M73.167 161.867c-4.994 0-9.057 4.067-9.057 9.066 0 4.999 4.063 9.066 9.057 9.066s9.057-4.067 9.057-9.066c0-4.999-4.063-9.066-9.057-9.066zm0 15.674c-3.64 0-6.6-2.964-6.6-6.607 0-3.643 2.961-6.607 6.6-6.607s6.6 2.964 6.6 6.607c0 3.643-2.961 6.607-6.6 6.607z" fill="#464646" data-color="1"/>
    </g>
</svg>
