<svg data-bbox="6 69 189 62.9" version="1.1" xmlns="http://www.w3.org/2000/svg" viewBox="0 0 200 200"><g fill="#3D3129"><path fill="#3D3129" d="M178,123l6.8-7.4c1,0.6,2,0.9,3.1,0.9c1.6,0,3.2-0.6,4.4-1.8c2.2-2.2,2.6-8.7,2.7-10c0-0.4-0.2-0.9-0.5-1.2
	c-0.3-0.3-0.7-0.5-1.2-0.4c-1.3,0.1-7.8,0.5-10,2.7c-2.1,2.1-2.2,5.3-0.7,7.7l-4.6,5.1V108c1,0,4-2,4-6c0-3.1-4-8-4.8-9
	c-0.3-0.3-0.8-0.5-1.2-0.5c-0.4,0-0.9,0.2-1.2,0.5c-0.9,1-4.9,5.9-4.9,9c0,3,2.1,5.5,5.1,6.1v10.3l-5.2-5c1.4-2.4,1-5.6-1-7.7
	c-2.2-2.2-8.8-2.6-10-2.7c-0.5,0-0.9,0.1-1.2,0.4c-0.3,0.3-0.5,0.7-0.5,1.2c0.1,1.3,0.5,7.8,2.7,10c1.2,1.2,2.8,1.8,4.5,1.8
	c1.1,0,2.4-0.3,3.4-0.9l7.4,7.2v6.3h-28v-15h5c0.9,0,2-1,2-2v-7c0-1-1-2-2-2h-16v-6h11c1,0,2-1,2-2v-7c0-1-1.1-2-2-2h-11v-6h11
	c1,0,2-1,2-2v-7c0-1-1-2-2-2H53c-1,0-2,1-2,2v7c0,1,1,2,2,2h10v6H53c-1,0-2,1-2,2v7c0,1,1,2,2,2h10v6H47c-1,0-2,1-2,2v7c0,1,1,2,2,2
	h5v15H25v-5l5.7-5.4c1,0.6,2,0.9,3.1,0.9c1.6,0,3.2-0.6,4.4-1.8c2.2-2.2,2.6-8.7,2.7-10c0-0.4-0.1-0.9-0.5-1.2
	c-0.3-0.3-0.7-0.5-1.2-0.4c-1.3,0.1-7.8,0.5-10,2.7c-2.1,2.1-2.2,5.3-0.8,7.7l-3.5,3.7V108l5.7-5.6c1,0.6,2,0.9,3.1,0.9
	c1.6,0,3.2-0.6,4.4-1.8c2.2-2.2,2.6-8.7,2.7-10c0-0.4-0.1-0.9-0.5-1.2c-0.3-0.3-0.7-0.3-1.2-0.2c-1.3,0.1-7.8,0.9-10,2.9h0
	c-2.1,2-2.2,5-0.8,7.5l-3.5,3.4V90c2-1,5-2,5-6c0-3.1-4.1-8.6-5-9.5c-0.6-0.6-1.7-0.6-2.3,0C21.8,75.4,17,81,17,84c0,2.8,2,5.2,5,6
	v14l-3.3-3.5c1.4-2.4,1.1-5.5-1-7.5h-0.1c-2.2-2-8.7-2.8-10-2.9c-0.4,0-0.9,0-1.2,0.3C6.2,90.7,6,91.1,6,91.5
	c0.1,1.3,0.5,7.8,2.7,10c1.2,1.2,2.8,1.8,4.5,1.8c1.1,0,2.4-0.3,3.4-0.9L22,108v12l-3.3-3.6c1.4-2.4,1-5.6-1-7.7
	c-2.2-2.2-8.7-2.6-10-2.7c-0.4,0-0.9,0.1-1.2,0.4c-0.3,0.3-0.5,0.7-0.5,1.2c0.1,1.3,0.5,7.8,2.7,10c1.2,1.2,2.8,1.8,4.5,1.8
	c1.1,0,2.4-0.3,3.4-0.9l5.4,5.3v5.1H6v3h45.4h3.1h88.2h3.1H195v-3h-17V123z M185.5,107.9c0.7-0.7,3.5-1.4,6.2-1.7
	c-0.3,2.7-0.9,5.5-1.7,6.2c-1.3,1.3-3.3,1.3-4.6,0C184.3,111.2,184.3,109.1,185.5,107.9z M161.9,112.4c-0.7-0.7-1.4-3.5-1.7-6.2
	c2.7,0.3,5.5,0.9,6.2,1.7c1.3,1.3,1.3,3.3,0,4.6C165.2,113.7,163.1,113.7,161.9,112.4z M31.5,110.9c0.7-0.7,3.5-1.4,6.2-1.7
	c-0.3,2.7-0.9,5.5-1.7,6.2c-1.3,1.3-3.3,1.3-4.6,0C30.2,114.2,30.2,112.2,31.5,110.9z M31.5,95C31.5,95,31.5,95,31.5,95
	c0.7-1,3.5-1.5,6.2-1.8c-0.3,2.7-0.9,5.4-1.7,6.1c-1.3,1.3-3.3,1.4-4.6,0.1C30.2,98.2,30.2,96,31.5,95z M10.9,99.3
	c-0.7-0.7-1.4-3.4-1.7-6.1c2.7,0.3,5.5,0.8,6.2,1.8c0,0,0,0,0,0c1.3,1,1.3,3.2,0,4.4C14.2,100.7,12.1,100.6,10.9,99.3z M10.9,115.5
	c-0.7-0.7-1.4-3.5-1.7-6.2c2.7,0.3,5.5,0.9,6.2,1.7c1.3,1.3,1.3,3.3,0,4.6C14.2,116.8,12.1,116.8,10.9,115.5z M20.4,83.8
	c0-1,1.5-3.4,3.2-5.6c1.7,2.1,3.2,4.5,3.2,5.6c0,1.8-1.4,3.2-3.2,3.2C21.9,87,20.4,85.5,20.4,83.8z M54,77v-5h92v5H65.9h-3.1H54z
	 M66,80h67v6H66V80z M54,89h92v5H54V89z M66,97h67v6H66V97z M48,106h103v5H48V106z M55,129v-15h89v15H55z M172.7,102
	c0-1,1.5-3.4,3.2-5.6c1.7,2.1,3.2,4.5,3.2,5.6c0,1.8-1.4,3.2-3.2,3.2C174.1,105.2,172.7,103.8,172.7,102z"></path></g></svg>